<svg xmlns="http://www.w3.org/2000/svg" width="216" height="242" fill="none" viewBox="0 0 216 242"><path fill="#FFE600" d="M149.317 192.875L142.465 199.2C142.134 199.505 141.797 199.8 141.457 200.082C136.87 203.86 131.523 205.25 125.481 204.217C116.32 202.654 105.392 195.577 93.0021 183.191C82.9853 173.175 72.0239 159.708 60.4179 143.158C41.4177 116.066 26.8518 89.413 25.5488 87.0083L32.4002 80.6828C33.7023 83.0845 48.2682 109.737 67.2685 136.829C78.8744 153.38 89.8387 166.848 99.8526 176.862C112.243 189.252 123.171 196.326 132.332 197.891C137.281 198.734 141.763 197.955 145.744 195.567C146.625 195.041 147.477 194.437 148.307 193.754C148.648 193.474 148.985 193.18 149.317 192.875Z"/><path fill="#FFE600" d="M163.089 180.157L156.204 186.515C155.87 186.821 155.534 187.116 155.193 187.395C154.359 188.084 153.498 188.69 152.611 189.219C151.366 189.965 150.07 190.554 148.726 190.983C145.784 191.925 142.613 192.111 139.218 191.533C130.058 189.966 119.131 182.892 106.738 170.504C96.7239 160.49 85.7596 147.021 74.1537 130.471C55.1534 103.379 40.5896 76.7251 39.2854 74.3245L46.1726 67.9653C47.4747 70.367 62.0386 97.021 81.0409 124.112C92.6468 140.662 103.609 154.132 113.623 164.146C126.016 176.534 136.943 183.608 146.103 185.175C147.77 185.457 149.383 185.56 150.943 185.475C152.552 185.389 154.102 185.106 155.591 184.629L155.594 184.628C156.945 184.201 158.247 183.61 159.498 182.859C160.383 182.332 161.246 181.725 162.08 181.036C162.421 180.756 162.756 180.463 163.089 180.157Z"/><path fill="#FFE600" d="M173.264 170.146C172.22 171.52 171.121 172.738 169.974 173.796C169.643 174.104 169.306 174.398 168.965 174.678C168.131 175.367 167.27 175.973 166.383 176.501C165.132 177.252 163.833 177.842 162.481 178.269C160.983 178.75 159.423 179.032 157.804 179.116C156.253 179.197 154.647 179.097 152.99 178.816C152.781 178.78 152.571 178.742 152.361 178.701C143.329 176.927 132.621 169.892 120.51 157.787C110.496 147.773 99.532 134.304 87.9261 117.754C68.9258 90.6618 54.362 64.0078 53.0578 61.6072L59.945 55.248C61.2471 57.6497 75.811 84.3037 94.8133 111.394C106.419 127.945 117.381 141.415 127.395 151.429C136.841 160.869 145.434 167.225 153.043 170.406C155.18 171.3 157.238 171.943 159.217 172.335C159.439 172.38 159.656 172.421 159.875 172.458C161.533 172.742 163.139 172.842 164.691 172.757C166.308 172.674 167.868 172.392 169.366 171.911C170.716 171.485 172.015 170.895 173.264 170.146Z"/><path fill="#FFE600" d="M190.597 154.753L183.746 161.079C183.415 161.387 183.078 161.681 182.737 161.961C181.902 162.651 181.038 163.258 180.151 163.787C178.9 164.537 177.601 165.127 176.251 165.553C174.753 166.034 173.193 166.316 171.576 166.399C170.026 166.483 168.421 166.383 166.762 166.099C166.544 166.062 166.326 166.021 166.105 165.976C164.115 165.583 162.046 164.936 159.896 164.035C157.668 163.101 155.356 161.897 152.963 160.421C147.191 156.863 140.948 151.737 134.283 145.07C124.267 135.057 113.304 121.587 101.698 105.037C82.6961 77.9459 68.1323 51.2919 66.8301 48.8902L73.6807 42.5617C74.9837 44.9663 89.5496 71.6192 108.55 98.7111C120.156 115.261 131.117 128.728 141.134 138.744C144.914 142.524 148.559 145.81 152.06 148.596C154.731 150.721 157.317 152.554 159.813 154.092C162.221 155.577 164.544 156.788 166.782 157.721C168.929 158.62 171 159.266 172.986 159.654C173.196 159.696 173.404 159.735 173.613 159.77C175.279 160.057 176.893 160.155 178.452 160.074C180.068 159.988 181.625 159.704 183.123 159.223C184.471 158.792 185.771 158.204 187.019 157.452C187.902 156.925 188.757 156.323 189.589 155.635C189.929 155.353 190.266 155.058 190.597 154.753Z"/></svg>