<svg xmlns="http://www.w3.org/2000/svg" width="232" height="379" fill="none" viewBox="0 0 232 379"><path fill="#00FFB2" d="M66.4591 38.6763C66.0464 39.0574 65.6556 39.4839 65.2897 39.9576C64.6412 40.7936 64.0667 41.7611 63.5679 42.8661C59.5338 51.7879 60.3993 69.6144 66.1945 98.2533C71.8239 126.089 81.3073 160.559 91.3481 197.051C102.508 237.612 114.048 279.559 120.873 314.761C124.305 332.46 126.284 347.196 126.813 359.092C126.971 362.659 127 365.973 126.896 369.035C124.668 368.1 122.356 366.897 119.963 365.42C119.8 361.751 119.497 357.81 119.059 353.596C118.074 344.153 116.395 333.331 114.023 321.089C107.197 285.884 95.6575 243.941 84.4968 203.376C74.456 166.884 64.9725 132.415 59.3419 104.583C52.8313 72.3948 52.5452 53.8695 58.4383 46.2831C58.8051 45.8124 59.1958 45.3859 59.6085 45.0048L59.8095 44.8206L66.4591 38.6763Z"/><path fill="#00FFB2" d="M80.2313 25.959C79.8166 26.3413 79.4279 26.7666 79.062 27.2403C78.4081 28.0827 77.8291 29.0596 77.3286 30.1757C76.5394 31.9257 75.939 34.0178 75.5273 36.4689C75.1164 38.9059 74.8935 41.6991 74.8568 44.8595C74.7413 54.7103 76.4411 68.124 79.9647 85.5372C85.5961 113.372 95.0796 147.842 105.12 184.334C116.278 224.896 127.82 266.841 134.646 302.043C140.125 330.3 141.899 350.997 139.985 364.654C139.636 367.135 139.168 369.38 138.576 371.399C137.026 371.482 135.421 371.383 133.762 371.099C133.543 371.062 133.326 371.021 133.105 370.976C133.457 368.463 133.682 365.713 133.781 362.721C134.233 349.45 132.225 331.44 127.758 308.403C120.935 273.199 109.393 231.254 98.2353 190.692C88.1924 154.201 78.711 119.73 73.0796 91.8952C68.4208 68.8672 66.948 52.8311 68.6472 42.7936C69.0588 40.3595 69.6568 38.2756 70.4435 36.5337C70.9439 35.4177 71.523 34.4408 72.1768 33.5984C72.5407 33.1259 72.9315 32.6994 73.3441 32.3183L80.2313 25.959Z"/><path fill="#00FFB2" d="M94.0037 13.2419C93.5889 13.6241 93.2003 14.0495 92.8335 14.5202C92.1776 15.3638 91.5986 16.3407 91.0989 17.4597C90.3097 19.2097 89.7101 21.3047 89.2984 23.7558C88.8838 26.2052 88.662 29.0113 88.6281 32.1905C88.5926 35.3468 88.7434 38.8703 89.0807 42.7711C89.4113 46.6043 89.9232 50.8042 90.6155 55.3847C91.4146 60.6826 92.4546 66.4868 93.7371 72.82C99.3685 100.655 108.851 135.121 118.892 171.613C130.051 212.179 141.593 254.124 148.418 289.326C155.919 328.022 156.478 352.538 150.122 364.223C150.039 364.378 149.955 364.528 149.87 364.677C149.004 366.175 148.1 367.548 147.151 368.787C145.9 369.537 144.601 370.128 143.251 370.553C144.113 368.965 144.848 367.137 145.451 365.074C149.312 351.932 148.011 329.096 141.531 295.686C134.708 260.482 123.165 218.537 112.008 177.974C101.964 141.481 92.4833 107.013 86.8519 79.1781C84.4571 67.3393 82.9043 57.3494 82.1913 49.0705C81.8555 45.1926 81.7055 41.689 81.7429 38.5485C81.7769 35.3693 81.9986 32.5632 82.4132 30.1139C82.8229 27.6639 83.4233 25.5719 84.2117 23.8189C84.7142 22.7017 85.2924 21.7218 85.9484 20.8783C86.3131 20.4087 86.7038 19.9822 87.1165 19.6011L94.0037 13.2419Z"/><path fill="#00FFB2" d="M107.74 0.558319C107.327 0.939433 106.937 1.36593 106.57 1.83665C105.919 2.67382 105.345 3.64135 104.847 4.74923C104.057 6.49632 103.456 8.58546 103.04 11.0319C102.627 13.4771 102.402 16.2814 102.368 19.4576C102.329 22.6122 102.479 26.1328 102.814 30.0318C103.146 33.8809 103.659 38.1007 104.355 42.703C105.032 47.2006 105.885 52.0643 106.911 57.3091C107.093 58.239 107.281 59.1824 107.474 60.1365C108.243 63.9438 109.086 67.8698 109.991 71.9131C115.709 97.4321 123.961 127.427 132.628 158.93C143.789 199.494 155.328 241.438 162.154 276.643C169.754 315.843 170.228 340.491 163.605 351.991C161.788 355.146 159.784 357.735 157.597 359.754L150.746 366.079C152.932 364.06 154.936 361.472 156.755 358.319C163.378 346.82 162.904 322.172 155.303 282.968C148.478 247.766 136.938 205.82 125.777 165.255C115.736 128.763 106.254 94.2967 100.622 66.462C100.429 65.508 100.241 64.5645 100.06 63.6347C99.0385 58.4174 98.189 53.5755 97.5131 49.0978C96.8163 44.4926 96.3021 40.2669 95.9686 36.4149C95.6305 32.5112 95.4777 28.9887 95.5153 25.8313C95.5492 22.6521 95.771 19.846 96.1855 17.3967C96.5952 14.9467 97.1948 12.8517 97.984 11.1016C98.4857 9.98147 99.0648 9.00459 99.7186 8.16217C100.085 7.69145 100.476 7.26496 100.889 6.88385L107.74 0.558319Z"/></svg>