<svg width="158" height="158" viewBox="0 0 158 158" fill="none" xmlns="http://www.w3.org/2000/svg">
<path d="M95.2378 124.775C94.9825 125.098 94.7288 125.411 94.4666 125.717C93.6617 126.658 92.8297 127.526 91.9685 128.322C91.5842 128.677 91.1951 129.014 90.7987 129.342C78.5397 139.438 60.8318 135.601 37.9913 117.913C34.7815 115.425 31.4715 112.667 28.0599 109.634C27.0386 104.417 26.1891 99.5753 25.5132 95.0976C27.8478 97.0077 30.3062 99.1436 32.8985 101.5C33.5721 102.113 34.2433 102.717 34.9113 103.309C61.052 126.547 81.2916 133.738 95.2378 124.775Z" fill="#7000FF"/>
<path d="M108.988 112.073C108.73 112.402 108.468 112.719 108.202 113.031C107.398 113.975 106.565 114.839 105.706 115.634C105.322 115.989 104.931 116.331 104.535 116.658C103.747 117.305 102.937 117.899 102.105 118.43L102.103 118.432C100.862 119.227 99.5724 119.897 98.2324 120.435C84.1261 126.117 64.5375 117.658 39.7835 95.1415C37.1753 92.7707 34.6997 90.624 32.3549 88.7026C29.3574 86.2449 26.567 84.1528 23.9686 82.4146C23.6305 78.5108 23.4777 74.9884 23.5152 71.831C25.7631 72.8801 28.1936 74.2748 30.8137 76.0315C35.4596 79.1351 40.7132 83.3637 46.6687 88.7835C69.0574 109.149 87.2223 118.014 100.926 115.318C102.364 115.033 103.753 114.623 105.094 114.087C106.442 113.544 107.742 112.875 108.988 112.073Z" fill="#7000FF"/>
<path d="M126.364 96.5588L119.479 102.917C119.094 103.272 118.704 103.613 118.307 103.938C117.521 104.586 116.713 105.176 115.881 105.708C114.633 106.511 113.332 107.184 111.981 107.725C110.634 108.264 109.236 108.679 107.79 108.959C106.351 109.244 104.861 109.398 103.323 109.423C90.2275 109.657 73.5817 100.638 53.5561 82.4243C44.2138 73.9237 36.6008 68.352 30.3679 65.4574C29.6962 65.1455 29.0404 64.8655 28.4004 64.6173C26.9096 64.0357 25.5042 63.6268 24.1857 63.3964C24.5954 60.9464 25.195 58.8514 25.9842 57.1014C27.4932 56.7292 29.1815 56.7077 31.0406 57.0316C32.3688 57.2632 33.7862 57.6723 35.2876 58.2581C41.8674 60.8256 50.0953 66.6493 60.4412 76.0662C78.1025 92.1317 93.1355 101.041 105.424 102.759C107.06 102.99 108.65 103.092 110.187 103.067C111.734 103.04 113.23 102.886 114.677 102.599C116.123 102.317 117.521 101.905 118.868 101.366C120.218 100.821 121.518 100.153 122.768 99.3486C123.599 98.8141 124.408 98.2242 125.194 97.579C125.589 97.2552 125.98 96.9138 126.364 96.5588Z" fill="#7000FF"/>
<path d="M140.1 83.8753L133.249 90.2008C132.865 90.5558 132.474 90.8972 132.079 91.221C131.291 91.8674 130.483 92.4602 129.651 92.9918C128.403 93.7947 127.103 94.4634 125.755 95.0067C124.408 95.5459 123.008 95.959 121.56 96.2426C120.114 96.525 118.617 96.6803 117.072 96.706C115.525 96.7329 113.931 96.6303 112.284 96.3975C110.647 96.166 108.96 95.8102 107.225 95.3249C95.9487 92.1669 82.6244 83.6215 67.3283 69.707C56.9804 60.2913 48.7524 54.4675 42.1726 51.9001C36.709 49.7682 32.3915 49.9797 29.2949 52.53C29.157 52.6414 29.0215 52.7616 28.8889 52.8836L35.7402 46.5581C35.8721 46.4332 36.0083 46.3159 36.1454 46.2016C39.2421 43.6513 43.5596 43.4398 49.0232 45.5716C55.6038 48.142 63.8317 53.9657 74.1789 63.3786C87.1155 75.1457 98.6428 83.0744 108.712 87.1512C110.549 87.895 112.336 88.5105 114.076 88.9994C115.819 89.4871 117.514 89.8453 119.16 90.0751C120.804 90.3061 122.4 90.4076 123.945 90.3819C125.492 90.355 126.986 90.198 128.434 89.9143C129.881 89.6278 131.278 89.217 132.626 88.6737C133.976 88.1293 135.275 87.4576 136.522 86.6518C137.348 86.1236 138.15 85.5372 138.93 84.8955C139.327 84.5676 139.716 84.2303 140.1 83.8753Z" fill="#7000FF"/>
</svg>
