<svg width="166" height="301" viewBox="0 0 166 301" fill="none" xmlns="http://www.w3.org/2000/svg">
<path d="M77.5864 38.528C90.011 95.1539 98.7936 154.124 101.738 200.796C103.526 229.167 103.251 253.292 100.92 272.493C100.276 277.807 99.4734 282.741 98.5154 287.291C97.9689 289.883 97.3718 292.35 96.7231 294.69C95.0863 294.458 93.3989 294.102 91.664 293.617C92.211 291.019 92.7084 288.292 93.151 285.443C93.4867 283.303 93.7919 281.095 94.0687 278.818C96.3996 259.617 96.6742 235.492 94.8868 207.121C91.9422 160.449 83.1605 101.482 70.735 44.8535L77.5864 38.528Z" fill="#DB00FF"/>
<path d="M91.3567 25.8117C103.781 82.4376 112.564 141.408 115.508 188.079C117.298 216.449 117.023 240.574 114.692 259.775C113.309 271.163 111.2 280.82 108.384 288.674C107.638 290.756 106.843 292.709 105.999 294.535C104.553 294.817 103.056 294.972 101.511 294.998C102.258 292.915 102.954 290.702 103.599 288.367C105.389 281.904 106.794 274.485 107.807 266.133C110.138 246.933 110.413 222.807 108.623 194.438C105.679 147.766 96.8962 88.7957 84.4715 32.1698L91.3567 25.8117Z" fill="#DB00FF"/>
<path d="M105.128 13.0918C117.554 69.7207 126.336 128.691 129.281 175.363C131.07 203.732 130.796 227.858 128.465 247.058C126.346 264.507 122.52 277.888 117.065 286.966C116.121 288.535 115.131 289.974 114.09 291.284C112.842 292.087 111.542 292.756 110.194 293.299C111.138 291.731 112.029 290.032 112.873 288.207C116.911 279.48 119.829 267.838 121.58 253.416C123.911 234.216 124.185 210.09 122.396 181.721C119.451 135.049 110.669 76.0788 98.2432 19.4499L105.128 13.0918Z" fill="#DB00FF"/>
<path d="M118.867 0.406972C131.292 57.0358 140.074 116.003 143.018 162.675C144.808 191.045 144.533 215.17 142.202 234.37C139.627 255.595 134.524 270.797 127.036 279.56C126.232 280.501 125.4 281.369 124.54 282.163L117.689 288.489C118.55 287.693 119.382 286.825 120.185 285.886C127.672 277.122 132.773 261.919 135.351 240.696C137.682 221.495 137.957 197.37 136.167 169C133.223 122.328 124.44 63.3584 112.015 6.73251L118.867 0.406972Z" fill="#DB00FF"/>
</svg>
