<svg width="1436" height="419" viewBox="0 0 1436 419" fill="none" xmlns="http://www.w3.org/2000/svg">
<g style="mix-blend-mode:soft-light" filter="url(#filter0_f_15_2)">
<path fill-rule="evenodd" clip-rule="evenodd" d="M-21 100.934L18.93 74.7617C60.07 48.5895 139.93 -3.75483 221 4.96923C308 33.704 276.5 25.2567 341 65.0854C422.07 134.878 504.93 120.398 586 85.5022C667.07 50.606 729.43 -0.352033 810.5 8.37203C891.57 17.0961 1022.43 85.5022 1103.5 85.5022C1184.57 85.5022 1211.5 24.0557 1309 24.0557L1323.5 25.008L1336 27.6546L1365 41.2658L1432 96.4668L1431 160.546V415H1391.07C1349.93 415 1270.07 415 1189 415C1107.93 415 1028.07 415 947 415C865.93 415 786.07 415 705 415C623.93 415 544.07 415 463 415C381.93 415 302.07 415 221 415C139.93 415 60.07 415 18.93 415H-21V100.934Z" fill="url(#paint0_linear_15_2)"/>
<path fill-rule="evenodd" clip-rule="evenodd" d="M-21 100.934L18.93 74.7617C60.07 48.5895 139.93 -3.75483 221 4.96923C308 33.704 276.5 25.2567 341 65.0854C422.07 134.878 504.93 120.398 586 85.5022C667.07 50.606 729.43 -0.352033 810.5 8.37203C891.57 17.0961 1022.43 85.5022 1103.5 85.5022C1184.57 85.5022 1211.5 24.0557 1309 24.0557L1323.5 25.008L1336 27.6546L1365 41.2658L1432 96.4668L1431 160.546V415H1391.07C1349.93 415 1270.07 415 1189 415C1107.93 415 1028.07 415 947 415C865.93 415 786.07 415 705 415C623.93 415 544.07 415 463 415C381.93 415 302.07 415 221 415C139.93 415 60.07 415 18.93 415H-21V100.934Z" stroke="black"/>
</g>
<defs>
<filter id="filter0_f_15_2" x="-25" y="0" width="1461" height="419" filterUnits="userSpaceOnUse" color-interpolation-filters="sRGB">
<feFlood flood-opacity="0" result="BackgroundImageFix"/>
<feBlend mode="normal" in="SourceGraphic" in2="BackgroundImageFix" result="shape"/>
<feGaussianBlur stdDeviation="2" result="effect1_foregroundBlur_15_2"/>
</filter>
<linearGradient id="paint0_linear_15_2" x1="706" y1="61.0915" x2="693.189" y2="354.941" gradientUnits="userSpaceOnUse">
<stop offset="0.201042" stop-color="#1C093D"/>
<stop offset="0.732292" stop-color="#020005"/>
<stop offset="0.9999" stop-color="#020005"/>
</linearGradient>
</defs>
</svg>
